<?xml version="1.0" encoding="utf-8"?>
<!-- Generator: Adobe Illustrator 24.0.1, SVG Export Plug-In . SVG Version: 6.00 Build 0)  -->
<svg version="1.1" id="Capa_1" xmlns="http://www.w3.org/2000/svg" xmlns:xlink="http://www.w3.org/1999/xlink" x="0px" y="0px"
	 viewBox="0 0 800 800" style="enable-background:new 0 0 800 800;" xml:space="preserve">
	  <style type="text/css">
	.st0{fill:#7596c7;}
</style>
<g>
	<path class="st0" d="M537.18,401.53c0,105.2,0.04,210.4-0.09,315.6c-0.01,7.71-0.35,15.63-2.09,23.09c-9.74,41.69-62.66,58.07-98.13,30.36
		c-29.34-22.92-58.34-46.27-87.5-69.43c-35.71-28.37-71.34-56.85-107.24-84.98c-4.73-3.71-6.19-7.48-6.19-13.24
		c0.14-135.61,0.15-271.22-0.03-406.83c-0.01-5.93,1.88-9.48,6.47-13.11c63.78-50.39,127.38-101.03,191.08-151.53
		c21.38-16.95,45.17-20.67,69.75-9.01c24.2,11.48,33.64,33.49,33.78,58.82c0.51,92.16,0.2,184.33,0.2,276.49
		C537.18,372.36,537.18,386.95,537.18,401.53z"/>
	<path class="st0" d="M175.83,578.27c-31.67,0-62.69,0.94-93.63-0.27c-29.81-1.17-54.4-27.1-54.56-56.97c-0.43-80.95-0.44-161.9,0.01-242.84
		c0.16-29.49,24.24-55.39,53.73-56.76c31.22-1.44,62.56-0.32,94.45-0.32C175.83,340.08,175.83,458.67,175.83,578.27z"/>
	<path class="st0" d="M644.32,384.79c-14.41-18.28-27.67-36.3-42.23-53.19c-11.3-13.1-8.55-35.43,2.81-44.57c12.29-9.89,32.71-6.61,43.92,7.24
		c11.27,13.92,22.41,27.95,34.29,42.77c11.99-14.98,23.39-29.18,34.74-43.42c8.23-10.32,18.55-15.6,31.83-12.24
		c22.2,5.62,29.99,28.91,15.99,47.78c-7.02,9.47-14.56,18.55-21.86,27.81c-7.11,9.01-14.21,18.02-21.9,27.78
		c13.22,18.95,26.64,37.85,39.62,57.04c3.05,4.5,5.65,9.79,6.68,15.06c2.51,12.88-4.32,26.64-14.63,31.62
		c-11.67,5.64-28.06,2.69-36.74-7.44c-9.88-11.55-19.1-23.66-28.63-35.5c-2.49-3.09-5.07-6.11-8.22-9.9
		c-12.32,15.37-23.92,30.27-36.01,44.76c-9.17,11-24.41,13.45-36.25,6.56c-13.05-7.59-19-22.43-13.95-35.85
		c1.38-3.67,3.82-7.06,6.27-10.2C614.57,422.34,629.23,403.89,644.32,384.79z"/>
</g>
</svg>
